<?xml version="1.0" encoding="utf-8"?>
<!-- Generator: Adobe Illustrator 23.1.1, SVG Export Plug-In . SVG Version: 6.00 Build 0)  -->
<svg version="1.1" id="Capa_1" xmlns="http://www.w3.org/2000/svg" xmlns:xlink="http://www.w3.org/1999/xlink" x="0px" y="0px"
	 viewBox="0 0 1280 100" style="enable-background:new 0 0 1280 100;" xml:space="preserve">
<style type="text/css">
	.st0{fill:#8016A8;stroke:#1D1D1B;stroke-miterlimit:10;}
	.st1{fill:#179FA5;stroke:#1D1D1B;stroke-miterlimit:10;}
	.st2{fill:#A37819;stroke:#1D1D1B;stroke-miterlimit:10;}
</style>
<rect x="51.04" y="34.78" class="st0" width="122.06" height="67.65"/>
<rect x="220.17" y="2.42" class="st0" width="129.42" height="60.3"/>
<rect x="386.35" y="21.54" class="st0" width="61.77" height="44.12"/>
<rect x="495.17" y="5.37" class="st0" width="80.88" height="76.47"/>
<rect x="645.18" y="45.07" class="st0" width="144.12" height="52.94"/>
<rect x="871.66" y="-0.52" class="st0" width="123.53" height="60.3"/>
<rect x="1124.6" y="56.84" class="st1" width="102.94" height="60.3"/>
<rect x="471.64" y="53.9" class="st1" width="101.47" height="55.88"/>
<rect x="736.36" y="-1.99" class="st1" width="51.47" height="69.12"/>
<rect x="915.78" y="36.25" class="st1" width="77.94" height="73.53"/>
<rect x="3.98" y="-4.93" class="st1" width="69.12" height="38.24"/>
<rect x="117.22" y="50.95" class="st1" width="61.77" height="39.71"/>
<rect x="-51.9" y="55.37" class="st1" width="211.77" height="92.65"/>
<rect x="249.58" y="-21.11" class="st1" width="64.71" height="50"/>
<rect x="386.35" y="65.66" class="st1" width="91.18" height="92.65"/>
<rect x="576.06" y="-25.52" class="st1" width="57.35" height="58.83"/>
<rect x="1037.84" y="-13.75" class="st1" width="92.65" height="58.83"/>
<rect x="1226.08" y="-13.75" class="st1" width="86.77" height="52.94"/>
<rect x="-10.72" y="-13.75" class="st1" width="94.12" height="35.3"/>
<rect x="117.22" y="59.78" class="st1" width="83.83" height="60.3"/>
<rect x="131.93" y="-26.99" class="st2" width="57.35" height="95.59"/>
<rect x="246.64" y="53.9" class="st2" width="83.83" height="77.94"/>
<rect x="398.11" y="-25.52" class="st2" width="110.3" height="67.65"/>
<rect x="1017.25" y="36.25" class="st2" width="69.12" height="63.24"/>
</svg>
